<svg width="27" height="30" viewBox="0 0 27 30" fill="none" xmlns="http://www.w3.org/2000/svg">
<path d="M13.5001 24.3359C13.7638 24.3359 14.0216 24.2577 14.2408 24.1112C14.4601 23.9647 14.631 23.7565 14.7319 23.5128C14.8328 23.2692 14.8592 23.0011 14.8078 22.7425C14.7563 22.4838 14.6294 22.2463 14.4429 22.0598C14.2564 21.8733 14.0188 21.7463 13.7602 21.6949C13.5016 21.6434 13.2335 21.6698 12.9898 21.7708C12.7462 21.8717 12.538 22.0426 12.3915 22.2618C12.2449 22.4811 12.1667 22.7389 12.1667 23.0026C12.1667 23.3562 12.3072 23.6954 12.5573 23.9454C12.8073 24.1955 13.1465 24.3359 13.5001 24.3359ZM20.1667 24.3359C20.4305 24.3359 20.6882 24.2577 20.9075 24.1112C21.1268 23.9647 21.2977 23.7565 21.3986 23.5128C21.4995 23.2692 21.5259 23.0011 21.4745 22.7425C21.423 22.4838 21.296 22.2463 21.1096 22.0598C20.9231 21.8733 20.6855 21.7463 20.4269 21.6949C20.1682 21.6434 19.9001 21.6698 19.6565 21.7708C19.4129 21.8717 19.2046 22.0426 19.0581 22.2618C18.9116 22.4811 18.8334 22.7389 18.8334 23.0026C18.8334 23.3562 18.9739 23.6954 19.2239 23.9454C19.474 24.1955 19.8131 24.3359 20.1667 24.3359ZM20.1667 19.0026C20.4305 19.0026 20.6882 18.9244 20.9075 18.7779C21.1268 18.6314 21.2977 18.4231 21.3986 18.1795C21.4995 17.9359 21.5259 17.6678 21.4745 17.4091C21.423 17.1505 21.296 16.9129 21.1096 16.7265C20.9231 16.54 20.6855 16.413 20.4269 16.3616C20.1682 16.3101 19.9001 16.3365 19.6565 16.4374C19.4129 16.5383 19.2046 16.7092 19.0581 16.9285C18.9116 17.1478 18.8334 17.4056 18.8334 17.6693C18.8334 18.0229 18.9739 18.362 19.2239 18.6121C19.474 18.8621 19.8131 19.0026 20.1667 19.0026ZM13.5001 19.0026C13.7638 19.0026 14.0216 18.9244 14.2408 18.7779C14.4601 18.6314 14.631 18.4231 14.7319 18.1795C14.8328 17.9359 14.8592 17.6678 14.8078 17.4091C14.7563 17.1505 14.6294 16.9129 14.4429 16.7265C14.2564 16.54 14.0188 16.413 13.7602 16.3616C13.5016 16.3101 13.2335 16.3365 12.9898 16.4374C12.7462 16.5383 12.538 16.7092 12.3915 16.9285C12.2449 17.1478 12.1667 17.4056 12.1667 17.6693C12.1667 18.0229 12.3072 18.362 12.5573 18.6121C12.8073 18.8621 13.1465 19.0026 13.5001 19.0026ZM22.8334 3.0026H21.5001V1.66927C21.5001 1.31565 21.3596 0.97651 21.1096 0.726462C20.8595 0.476413 20.5204 0.335938 20.1667 0.335938C19.8131 0.335938 19.474 0.476413 19.2239 0.726462C18.9739 0.97651 18.8334 1.31565 18.8334 1.66927V3.0026H8.16675V1.66927C8.16675 1.31565 8.02627 0.97651 7.77622 0.726462C7.52617 0.476413 7.18704 0.335938 6.83341 0.335938C6.47979 0.335938 6.14065 0.476413 5.89061 0.726462C5.64056 0.97651 5.50008 1.31565 5.50008 1.66927V3.0026H4.16675C3.10588 3.0026 2.08847 3.42403 1.33832 4.17418C0.588176 4.92432 0.166748 5.94174 0.166748 7.0026V25.6693C0.166748 26.7301 0.588176 27.7476 1.33832 28.4977C2.08847 29.2478 3.10588 29.6693 4.16675 29.6693H22.8334C23.8943 29.6693 24.9117 29.2478 25.6618 28.4977C26.412 27.7476 26.8334 26.7301 26.8334 25.6693V7.0026C26.8334 5.94174 26.412 4.92432 25.6618 4.17418C24.9117 3.42403 23.8943 3.0026 22.8334 3.0026ZM24.1667 25.6693C24.1667 26.0229 24.0263 26.362 23.7762 26.6121C23.5262 26.8621 23.187 27.0026 22.8334 27.0026H4.16675C3.81313 27.0026 3.47399 26.8621 3.22394 26.6121C2.97389 26.362 2.83341 26.0229 2.83341 25.6693V13.6693H24.1667V25.6693ZM24.1667 11.0026H2.83341V7.0026C2.83341 6.64898 2.97389 6.30984 3.22394 6.05979C3.47399 5.80975 3.81313 5.66927 4.16675 5.66927H5.50008V7.0026C5.50008 7.35623 5.64056 7.69536 5.89061 7.94541C6.14065 8.19546 6.47979 8.33594 6.83341 8.33594C7.18704 8.33594 7.52617 8.19546 7.77622 7.94541C8.02627 7.69536 8.16675 7.35623 8.16675 7.0026V5.66927H18.8334V7.0026C18.8334 7.35623 18.9739 7.69536 19.2239 7.94541C19.474 8.19546 19.8131 8.33594 20.1667 8.33594C20.5204 8.33594 20.8595 8.19546 21.1096 7.94541C21.3596 7.69536 21.5001 7.35623 21.5001 7.0026V5.66927H22.8334C23.187 5.66927 23.5262 5.80975 23.7762 6.05979C24.0263 6.30984 24.1667 6.64898 24.1667 7.0026V11.0026ZM6.83341 19.0026C7.09712 19.0026 7.35491 18.9244 7.57417 18.7779C7.79344 18.6314 7.96434 18.4231 8.06525 18.1795C8.16617 17.9359 8.19258 17.6678 8.14113 17.4091C8.08968 17.1505 7.96269 16.9129 7.77622 16.7265C7.58975 16.54 7.35218 16.413 7.09353 16.3616C6.83489 16.3101 6.5668 16.3365 6.32317 16.4374C6.07954 16.5383 5.8713 16.7092 5.72479 16.9285C5.57828 17.1478 5.50008 17.4056 5.50008 17.6693C5.50008 18.0229 5.64056 18.362 5.89061 18.6121C6.14065 18.8621 6.47979 19.0026 6.83341 19.0026ZM6.83341 24.3359C7.09712 24.3359 7.35491 24.2577 7.57417 24.1112C7.79344 23.9647 7.96434 23.7565 8.06525 23.5128C8.16617 23.2692 8.19258 23.0011 8.14113 22.7425C8.08968 22.4838 7.96269 22.2463 7.77622 22.0598C7.58975 21.8733 7.35218 21.7463 7.09353 21.6949C6.83489 21.6434 6.5668 21.6698 6.32317 21.7708C6.07954 21.8717 5.8713 22.0426 5.72479 22.2618C5.57828 22.4811 5.50008 22.7389 5.50008 23.0026C5.50008 23.3562 5.64056 23.6954 5.89061 23.9454C6.14065 24.1955 6.47979 24.3359 6.83341 24.3359Z" fill="#F05654"/>
</svg>
