<svg width="22" height="23" viewBox="0 0 22 23" fill="none" xmlns="http://www.w3.org/2000/svg">
<path d="M21.3644 18.8666L16.58 14.0822C17.413 12.7334 17.9167 11.1599 17.9167 9.45855C17.9167 4.57216 13.9558 0.611328 9.06944 0.611328C4.18305 0.611328 0.222214 4.57216 0.222214 9.45855C0.222214 14.3449 4.18305 18.3058 9.06944 18.3058C10.7708 18.3058 12.3443 17.8022 13.6918 16.9705L18.4774 21.7548C18.8626 22.1272 19.3786 22.3334 19.9144 22.3288C20.4501 22.3242 20.9625 22.1093 21.3413 21.7304C21.72 21.3515 21.9347 20.8389 21.939 20.3032C21.9433 19.7675 21.7369 19.2515 21.3644 18.8666ZM9.06944 15.5836C5.68707 15.5836 2.94444 12.8409 2.94444 9.45855C2.94444 6.07619 5.68707 3.33355 9.06944 3.33355C12.4518 3.33355 15.1944 6.07619 15.1944 9.45855C15.1944 12.8409 12.4518 15.5836 9.06944 15.5836Z" fill="#BDBDBD"/>
</svg>
